<svg width="16" height="16" viewBox="0 0 16 16" fill="none" xmlns="http://www.w3.org/2000/svg">
<g clip-path="url(#clip0_8_2)">
<path d="M4.66667 10.6667V7.574C4.66667 7.234 4.73333 6.908 4.85667 6.60533M11.3333 9V8.54333M6.148 5.15667C6.71108 4.83228 7.35018 4.66319 8 4.66667C9.52 4.66667 10.802 5.55333 11.2033 6.76667M6.66667 11.3333V9.882M9.33333 11.3333V7.902C9.33333 7.22 8.73667 6.66667 8 6.66667C7.26333 6.66667 6.66667 7.22 6.66667 7.902V8.43133" stroke="#4DD865" stroke-linecap="round" stroke-linejoin="round"/>
<path d="M9.33333 14.5333C8.90267 14.6207 8.45667 14.6667 8 14.6667C4.318 14.6667 1.33333 11.682 1.33333 8C1.33333 4.318 4.318 1.33333 8 1.33333C11.682 1.33333 14.6667 4.318 14.6667 8C14.6667 8.16933 14.66 8.33733 14.648 8.50333" stroke="#4DD865" stroke-linecap="round" stroke-linejoin="round"/>
<path d="M14.1113 12.3333H14.2667C14.3728 12.3333 14.4745 12.3755 14.5495 12.4505C14.6245 12.5255 14.6667 12.6272 14.6667 12.7333V14.2667C14.6667 14.3728 14.6245 14.4745 14.5495 14.5495C14.4745 14.6245 14.3728 14.6667 14.2667 14.6667H11.7333C11.6272 14.6667 11.5255 14.6245 11.4505 14.5495C11.3755 14.4745 11.3333 14.3728 11.3333 14.2667V12.7333C11.3333 12.6272 11.3755 12.5255 11.4505 12.4505C11.5255 12.3755 11.6272 12.3333 11.7333 12.3333H11.8887M14.1113 12.3333V11.1667C14.1113 10.778 13.8887 10 13 10C12.1113 10 11.8887 10.778 11.8887 11.1667V12.3333M14.1113 12.3333H11.8887" stroke="#2664EC" stroke-linecap="round" stroke-linejoin="round"/>
</g>
<defs>
<clipPath id="clip0_8_2">
<rect width="16" height="16" fill="white"/>
</clipPath>
</defs>
</svg>
