<svg width="64" height="64" viewBox="0 0 64 64" fill="none" xmlns="http://www.w3.org/2000/svg">
<path d="M18.6667 42.6667V30.296C18.6667 28.936 18.9333 27.632 19.4267 26.4214M45.3333 42.6667V34.1734M24.592 20.6267C26.8443 19.3292 29.4007 18.6528 32 18.6667C38.08 18.6667 43.208 22.2134 44.8133 27.0667M26.6667 45.3334V39.528M37.3333 45.3334V31.608C37.3333 28.88 34.9467 26.6667 32 26.6667C29.0533 26.6667 26.6667 28.88 26.6667 31.608V33.7254" stroke="#2664EC" stroke-width="3" stroke-linecap="round" stroke-linejoin="round"/>
<path d="M32 58.6666C17.272 58.6666 5.33334 46.7279 5.33334 31.9999C5.33334 17.2719 17.272 5.33325 32 5.33325C46.728 5.33325 58.6667 17.2719 58.6667 31.9999C58.6667 34.7866 58.24 37.4746 57.4453 39.9999M41.3333 54.6666L46.6667 59.9999L53.3333 53.3333L60 46.6666" stroke="#4DD865" stroke-width="3" stroke-linecap="round" stroke-linejoin="round"/>
</svg>
