<svg width="10" height="10" viewBox="0 0 10 10" fill="none" xmlns="http://www.w3.org/2000/svg">
<circle cx="5" cy="5" r="4.75" fill="white" stroke="#2664EC" stroke-width="0.5"/>
<path d="M4.61364 8V3.63636H5.28409V8H4.61364ZM4.95455 2.90909C4.82386 2.90909 4.71117 2.86458 4.61648 2.77557C4.52367 2.68655 4.47727 2.57955 4.47727 2.45455C4.47727 2.32955 4.52367 2.22254 4.61648 2.13352C4.71117 2.04451 4.82386 2 4.95455 2C5.08523 2 5.19697 2.04451 5.28977 2.13352C5.38447 2.22254 5.43182 2.32955 5.43182 2.45455C5.43182 2.57955 5.38447 2.68655 5.28977 2.77557C5.19697 2.86458 5.08523 2.90909 4.95455 2.90909Z" fill="#2664EC"/>
</svg>
