<svg width="10" height="10" viewBox="0 0 10 10" fill="none" xmlns="http://www.w3.org/2000/svg">
<path d="M0.833336 8.33333V7.91667C0.833336 7.14312 1.14063 6.40125 1.68761 5.85427C2.23459 5.30729 2.97645 5 3.75 5" stroke="#4DD865" stroke-linecap="round" stroke-linejoin="round"/>
<path d="M6.585 5.13041C6.64818 5.06107 6.72513 5.00568 6.81094 4.96778C6.89675 4.92988 6.98952 4.9103 7.08333 4.9103C7.17714 4.9103 7.26991 4.92988 7.35572 4.96778C7.44153 5.00568 7.51849 5.06107 7.58166 5.13041C7.71708 5.27916 7.91083 5.35958 8.11166 5.35C8.20541 5.3456 8.29905 5.36083 8.38657 5.3947C8.47409 5.42858 8.55358 5.48035 8.61995 5.54672C8.68631 5.61308 8.73808 5.69257 8.77196 5.78009C8.80583 5.86762 8.82106 5.96125 8.81666 6.055C8.80708 6.25541 8.8875 6.44958 9.03583 6.585C9.32958 6.8525 9.32958 7.31416 9.03583 7.58166C8.8875 7.71708 8.80708 7.91083 8.81666 8.11166C8.82106 8.20541 8.80583 8.29905 8.77196 8.38657C8.73808 8.47409 8.68631 8.55358 8.61995 8.61995C8.55358 8.68631 8.47409 8.73808 8.38657 8.77196C8.29905 8.80583 8.20541 8.82106 8.11166 8.81666C8.01264 8.81198 7.91381 8.8292 7.8222 8.86708C7.73059 8.90496 7.64846 8.96258 7.58166 9.03583C7.51849 9.10517 7.44153 9.16056 7.35572 9.19847C7.26991 9.23637 7.17714 9.25594 7.08333 9.25594C6.98952 9.25594 6.89675 9.23637 6.81094 9.19847C6.72513 9.16056 6.64818 9.10517 6.585 9.03583C6.5182 8.96258 6.43608 8.90496 6.34447 8.86708C6.25286 8.8292 6.15402 8.81198 6.055 8.81666C5.96125 8.82106 5.86762 8.80583 5.78009 8.77196C5.69257 8.73808 5.61308 8.68631 5.54672 8.61995C5.48035 8.55358 5.42858 8.47409 5.3947 8.38657C5.36083 8.29905 5.3456 8.20541 5.35 8.11166C5.35463 8.01261 5.33735 7.91375 5.29939 7.82214C5.26144 7.73053 5.20374 7.64842 5.13041 7.58166C5.06107 7.51848 5.00568 7.44153 4.96778 7.35572C4.92988 7.26991 4.9103 7.17714 4.9103 7.08333C4.9103 6.98952 4.92988 6.89675 4.96778 6.81094C5.00568 6.72513 5.06107 6.64818 5.13041 6.585C5.27916 6.44958 5.35958 6.25583 5.35 6.055C5.3456 5.96125 5.36083 5.86762 5.3947 5.78009C5.42858 5.69257 5.48035 5.61308 5.54672 5.54672C5.61308 5.48035 5.69257 5.42858 5.78009 5.3947C5.86762 5.36083 5.96125 5.3456 6.055 5.35C6.25541 5.35958 6.44958 5.27916 6.585 5.13041Z" stroke="#4DD865"/>
<path d="M6.40167 7.08333L6.85584 7.5375L7.765 6.62917M3.75 5C4.19203 5 4.61595 4.82441 4.92851 4.51185C5.24107 4.19929 5.41667 3.77536 5.41667 3.33333C5.41667 2.89131 5.24107 2.46738 4.92851 2.15482C4.61595 1.84226 4.19203 1.66667 3.75 1.66667C3.30798 1.66667 2.88405 1.84226 2.57149 2.15482C2.25893 2.46738 2.08334 2.89131 2.08334 3.33333C2.08334 3.77536 2.25893 4.19929 2.57149 4.51185C2.88405 4.82441 3.30798 5 3.75 5Z" stroke="#4DD865" stroke-linecap="round" stroke-linejoin="round"/>
</svg>
